<?xml version="1.0" standalone="no"?>
<!DOCTYPE svg PUBLIC "-//W3C//DTD SVG 20010904//EN"
 "http://www.w3.org/TR/2001/REC-SVG-20010904/DTD/svg10.dtd">
<svg version="1.0" xmlns="http://www.w3.org/2000/svg"
 width="275.000000pt" height="183.000000pt" viewBox="0 0 275.000000 183.000000"
 preserveAspectRatio="xMidYMid meet">

<g transform="translate(0.000000,183.000000) scale(0.100000,-0.100000)"
fill="#000000" stroke="none">
<path d="M0 915 l0 -915 1375 0 1375 0 0 915 0 915 -1375 0 -1375 0 0 -915z
m1634 484 c34 -16 52 -62 38 -95 -11 -22 -47 -44 -73 -44 -20 0 -59 50 -59 75
0 25 39 75 59 75 6 0 21 -5 35 -11z m616 -19 c0 -5 -4 -10 -10 -10 -5 0 -10 5
-10 10 0 6 5 10 10 10 6 0 10 -4 10 -10z m-220 -34 c0 -15 -14 -35 -21 -30
-15 9 -10 34 6 34 8 0 15 -2 15 -4z m-39 -51 c-1 -15 -24 -12 -29 3 -3 9 2 13
12 10 10 -1 17 -7 17 -13z m72 0 c1 -5 -6 -11 -15 -13 -11 -2 -18 3 -18 13 0
17 30 18 33 0z m-38 -35 c0 -7 -6 -15 -12 -17 -8 -3 -13 4 -13 17 0 13 5 20
13 18 6 -3 12 -11 12 -18z m-272 -144 c46 -59 33 -76 -19 -25 l-32 31 -7 -31
c-16 -76 41 -151 115 -151 47 0 56 11 30 35 -20 18 -28 55 -12 55 4 0 25 -18
47 -40 44 -45 40 -60 -21 -80 -32 -11 -54 -9 -106 6 -15 4 -18 -1 -18 -26 0
-51 -24 -30 -31 26 -3 27 -13 63 -22 79 -22 38 -22 95 0 139 19 41 34 37 76
-18z m-353 34 c0 -5 -7 -10 -15 -10 -8 0 -15 5 -15 10 0 6 7 10 15 10 8 0 15
-4 15 -10z m876 -65 c19 -30 11 -81 -16 -95 -24 -13 -67 -13 -75 0 -4 6 -10 8
-14 6 -12 -8 -12 57 0 86 10 24 17 28 50 28 30 0 42 -6 55 -25z m-426 8 c0 -5
-19 -28 -41 -52 -53 -58 -74 -42 -23 17 32 37 64 55 64 35z m158 -119 c-4
-141 -22 -145 -26 -5 -3 111 2 141 19 124 6 -6 9 -55 7 -119z m-548 -4 c0 -11
-4 -20 -9 -20 -11 0 -22 26 -14 34 12 12 23 5 23 -14z m-32 -37 c2 -8 -5 -13
-17 -13 -12 0 -21 6 -21 16 0 18 31 15 38 -3z m77 8 c3 -5 1 -13 -5 -16 -15
-9 -43 3 -35 15 8 13 32 13 40 1z m-49 -56 c-8 -23 -25 -9 -19 16 4 13 9 17
16 10 5 -5 7 -17 3 -26z m589 -45 c40 -13 78 -68 73 -105 -5 -38 -21 -35 -29
5 -14 66 -29 70 -235 70 l-184 0 0 -55 c0 -42 -3 -55 -15 -55 -12 0 -15 14
-15 69 0 64 2 70 23 73 58 10 351 8 382 -2z m-1006 -29 c216 -44 468 -114 482
-134 3 -5 9 -8 13 -8 24 3 27 -1 21 -28 -7 -34 7 -66 36 -82 20 -10 20 -10 4
15 -15 22 -16 31 -5 56 22 54 66 65 105 26 14 -14 39 -26 57 -28 32 -3 53 -28
24 -28 -28 0 -17 -16 18 -27 34 -10 34 -10 26 13 -10 25 1 67 20 79 5 3 8 11
5 16 -10 16 59 -3 80 -22 12 -10 35 -22 53 -25 47 -9 44 -39 -3 -31 -22 4 -35
2 -35 -5 0 -6 -7 -20 -16 -30 -14 -14 -14 -18 -3 -22 8 -3 52 -17 99 -31 47
-15 106 -35 132 -46 26 -10 77 -26 115 -34 158 -35 293 -86 293 -110 0 -7 10
-15 22 -18 22 -6 22 -6 -4 -31 -47 -42 -127 -49 -484 -43 -230 5 -340 11 -394
22 -41 8 -97 17 -125 19 -281 21 -483 41 -446 45 8 0 19 8 25 17 8 11 34 18
82 21 38 3 72 10 75 16 5 6 41 6 105 -1 68 -7 101 -7 105 0 8 13 41 14 144 5
76 -7 78 -7 53 8 -15 8 -65 20 -110 26 -46 5 -112 17 -146 25 -35 9 -71 13
-79 10 -37 -15 -33 10 8 46 l44 39 -35 -14 c-30 -12 -39 -12 -56 -1 -27 18
-144 31 -144 16 0 -14 63 -32 113 -32 41 0 44 -4 23 -26 -16 -16 -78 -19 -104
-5 -9 6 -55 22 -102 36 -47 15 -91 28 -97 30 -7 3 -13 -2 -13 -10 0 -8 9 -15
19 -15 11 0 22 -4 25 -8 3 -5 -23 -4 -56 1 -46 8 -63 7 -66 -1 -6 -19 -22 -14
-22 8 0 11 -7 20 -15 20 -8 0 -15 -7 -15 -15 0 -19 -16 -20 -23 -1 -3 8 -25
17 -49 21 -24 3 -55 8 -70 11 -21 4 -28 2 -28 -10 0 -20 28 -32 142 -59 60
-14 88 -26 91 -37 3 -11 25 -21 68 -30 67 -14 128 -39 97 -40 -23 0 -32 -18
-18 -35 15 -18 6 -19 -71 -5 -30 5 -126 21 -214 35 -156 25 -337 79 -376 112
-8 7 -21 13 -28 13 -20 0 -115 53 -125 70 -6 8 -11 22 -12 30 -1 8 -5 32 -8
52 -5 31 -2 39 14 48 11 6 26 24 35 39 16 32 102 70 216 96 94 21 371 14 508
-14z m1241 -29 c0 -13 -12 -22 -22 -16 -10 6 -1 24 13 24 5 0 9 -4 9 -8z
m-385 -32 c0 -12 -19 -16 -97 -18 -93 -3 -98 -2 -98 18 0 20 5 21 98 18 78 -2
97 -6 97 -18z m143 3 c2 -9 -11 -13 -47 -13 -39 0 -51 4 -51 16 0 12 10 14 47
12 26 -2 48 -9 51 -15z m103 -81 c14 -13 22 -30 22 -50 0 -29 4 -33 51 -47 67
-20 156 -71 156 -91 0 -21 -29 -11 -100 32 -31 19 -59 34 -64 34 -5 0 -17 7
-27 16 -16 15 -20 15 -41 0 -30 -21 -54 -20 -78 4 -26 26 -25 68 2 97 26 28
48 29 79 5z m-822 -158 c10 -9 -56 -3 -69 7 -11 7 -4 8 25 3 22 -4 42 -8 44
-10z m-169 -39 l35 -13 -47 -1 c-36 -1 -48 3 -48 14 0 18 13 18 60 0z m153
-59 c7 -19 -48 -29 -88 -17 -28 9 -27 9 18 10 29 1 46 5 42 11 -3 6 0 10 8 10
8 0 17 -6 20 -14z m197 -6 c20 -6 14 -8 -25 -8 -27 0 -59 3 -70 8 -27 11 59
11 95 0z"/>
<path d="M1580 1366 c-16 -20 -9 -56 13 -70 39 -24 79 44 41 71 -23 17 -39 16
-54 -1z"/>
<path d="M2195 1070 c-17 -18 -17 -21 -1 -45 9 -14 22 -25 29 -25 37 0 51 62
18 80 -26 13 -25 13 -46 -10z"/>
<path d="M1626 634 c-9 -8 -14 -20 -11 -25 10 -14 25 -10 25 7 0 8 5 12 10 9
19 -11 10 -35 -12 -36 l-23 0 22 -11 c41 -20 70 24 37 56 -19 20 -29 20 -48 0z"/>
<path d="M1850 635 c-18 -21 -3 -55 24 -55 33 0 50 23 36 49 -12 24 -42 27
-60 6z m40 -20 c0 -8 -4 -15 -9 -15 -13 0 -22 16 -14 24 11 11 23 6 23 -9z"/>
<path d="M1000 620 c0 -5 5 -10 10 -10 6 0 10 5 10 10 0 6 -4 10 -10 10 -5 0
-10 -4 -10 -10z"/>
<path d="M470 606 c-20 -25 -1 -37 69 -43 52 -5 61 -3 61 11 0 32 -107 58
-130 32z m65 -16 c19 -8 19 -9 -2 -9 -12 -1 -25 4 -28 9 -7 12 2 12 30 0z"/>
<path d="M1725 610 c-3 -5 -1 -10 4 -10 6 0 11 5 11 10 0 6 -2 10 -4 10 -3 0
-8 -4 -11 -10z"/>
<path d="M836 595 c-3 -9 1 -18 10 -22 19 -7 28 2 21 22 -8 19 -23 19 -31 0z"/>
<path d="M890 581 c0 -5 7 -12 16 -15 22 -9 24 -8 24 9 0 8 -9 15 -20 15 -11
0 -20 -4 -20 -9z"/>
<path d="M470 530 c0 -5 5 -10 10 -10 6 0 10 5 10 10 0 6 -4 10 -10 10 -5 0
-10 -4 -10 -10z"/>
<path d="M650 475 c0 -11 7 -15 23 -13 12 2 22 8 22 13 0 6 -10 11 -22 13 -16
2 -23 -2 -23 -13z"/>
<path d="M720 467 c0 -8 9 -17 21 -20 15 -4 19 -1 17 11 -4 21 -38 29 -38 9z"/>
<path d="M1575 440 c3 -5 11 -10 16 -10 6 0 7 5 4 10 -3 6 -11 10 -16 10 -6 0
-7 -4 -4 -10z"/>
<path d="M958 388 c5 -5 16 -8 23 -6 8 3 3 7 -10 11 -17 4 -21 3 -13 -5z"/>
<path d="M1754 391 c3 -5 45 -12 94 -15 48 -4 121 -9 162 -12 50 -3 70 -2 61
5 -8 5 -62 12 -120 15 -58 4 -128 9 -154 12 -30 3 -46 1 -43 -5z"/>
<path d="M2087 648 c-25 -13 -22 -55 4 -63 28 -9 53 16 45 43 -8 25 -27 33
-49 20z m24 -31 c-1 -12 -15 -9 -19 4 -3 6 1 10 8 8 6 -3 11 -8 11 -12z"/>
</g>
</svg>
